<?xml version="1.0" encoding="UTF-8"?>
<svg xmlns="http://www.w3.org/2000/svg" width="64" height="40" viewBox="0 0 64 40" fill="none">
  <g clip-path="url(#clip0_mark)">
    <path d="M58.4323 25.1917C58.4323 25.1917 46.65 24.0958 46.65 29.1073C46.7233 31.9452 48.9521 33.4178 51.3922 33.4178C54.8054 33.4178 58.4581 27.4634 58.4323 25.1917ZM52.3998 15.2169C51.0233 15.2283 45.3641 15.2169 45.3641 15.2169L42.8268 11.2146L52.4904 11.2077C56.1561 11.1849 58.689 12.0433 60.2252 13.6438C61.7937 15.2785 62.9609 17.9109 62.935 21.5981C62.935 21.5981 62.8789 34.1073 62.9199 37.2968C61.5218 37.1643 58.702 36.9155 58.702 34.1095C58.702 33.863 58.7235 33.3196 58.702 32.8127C58.702 32.8127 56.6847 37.315 50.4472 37.315C46.3889 37.3059 42.4708 34.8561 42.3975 30.1643C42.4341 27.073 43.569 24.2671 46.281 22.9155C48.7428 21.6963 51.6403 21.4223 54.3243 21.4543H58.4366V20.8561C58.4495 16.4063 56.5164 15.1529 52.3998 15.2169Z" fill="#7EBD0B"/>
    <path d="M12.7096 34.7283C14.1918 36.9772 17.9136 36.8059 20.0236 36.8059L10.8153 22.847L17.9244 11.6986C16.0193 11.5548 12.4658 11.468 11.0958 13.5274C8.65344 17.2009 6.06009 21.6575 5.08057 22.9521C6.09245 24.5297 10.1508 30.8493 12.7075 34.726" fill="#7EBD0B"/>
    <path d="M0.0234375 4.31735L0.0342252 36.6142C1.44957 36.3311 4.94262 35.3356 4.94262 32.4269L4.94693 0C3.52943 0.285388 0.0234375 1.30137 0.0234375 4.31735Z" fill="#7EBD0B"/>
    <path d="M34.2205 29.1735C34.2205 27.5388 32.9691 26.952 32.0349 26.6004C31.4825 26.3972 30.2225 26.0342 28.2549 25.5137C24.2677 24.4612 20.7769 22.6438 20.7769 18.0342C20.7769 13.1621 24.9668 11.2146 29.3164 11.2146H36.8052L39.3036 15.1895H29.3509C27.9463 15.1895 25.3034 15.6735 25.3034 17.6963C25.3034 19.8676 28.9539 20.5251 30.3498 20.8767C35.1698 22.0867 38.9757 23.5639 38.9757 29.1484C38.9757 32.1461 37.2992 34.7625 34.6843 35.9201C33.3186 36.5251 31.6163 36.8082 29.5774 36.8082H26.1038L23.3659 32.5936H29.6227C31.5947 32.5936 34.2205 31.7511 34.2205 29.1735Z" fill="#7EBD0B"/>
  </g>
  <defs>
    <clipPath id="clip0_mark">
      <rect width="63" height="40" fill="white" transform="translate(0.0234375)"/>
    </clipPath>
  </defs>
</svg>
