<?xml version="1.0" encoding="UTF-8"?>
<svg xmlns="http://www.w3.org/2000/svg" width="64" height="50" viewBox="0 0 64 50" fill="none">
  <g clip-path="url(#clip0_3459_4289)">
    <path d="M61.1356 49.936C60.7105 49.936 60.3394 49.8515 60.0244 49.6803C59.7073 49.5113 59.457 49.2762 59.2736 48.9771C59.0902 48.678 58.9824 48.331 58.9521 47.936L59.6512 47.8858C59.6879 48.1757 59.7677 48.4223 59.8928 48.6255C60.018 48.8287 60.1841 48.9817 60.3955 49.0867C60.6048 49.1917 60.8572 49.2419 61.1528 49.2419C61.4117 49.2419 61.6318 49.2054 61.813 49.1346C61.9943 49.0639 62.1324 48.9588 62.2294 48.8218C62.3265 48.6849 62.374 48.5182 62.374 48.3196C62.374 48.1392 62.333 47.9794 62.2532 47.8378C62.1733 47.6986 62.0202 47.5684 61.7936 47.452C61.5671 47.3333 61.2348 47.2168 60.7947 47.1027C60.3697 46.9862 60.0309 46.8607 59.7806 46.7237C59.5282 46.5867 59.347 46.42 59.2369 46.2214C59.1248 46.025 59.0687 45.7808 59.0687 45.4885C59.0687 45.1597 59.142 44.8698 59.2909 44.6209C59.4376 44.3721 59.649 44.1757 59.9252 44.0365C60.1992 43.8972 60.5271 43.8264 60.9047 43.8264C61.3082 43.8264 61.6555 43.9063 61.9468 44.0684C62.2381 44.2305 62.4668 44.452 62.6394 44.7305C62.8098 45.0113 62.9177 45.3287 62.9587 45.6849L62.2596 45.7351C62.2294 45.4999 62.1582 45.2899 62.0461 45.105C61.9339 44.92 61.7828 44.7762 61.5908 44.6734C61.3988 44.5707 61.1658 44.5182 60.8918 44.5182C60.5487 44.5182 60.2769 44.605 60.0762 44.7785C59.8734 44.952 59.772 45.178 59.772 45.4566C59.772 45.6369 59.813 45.7876 59.8928 45.904C59.9727 46.0228 60.1172 46.1255 60.3243 46.2168C60.5315 46.3081 60.8292 46.404 61.2176 46.5091C61.6793 46.6301 62.0461 46.7739 62.3179 46.9406C62.5898 47.1072 62.7839 47.3013 62.9004 47.5205C63.0169 47.7397 63.0752 47.9885 63.0752 48.2693C63.0752 48.6095 62.9911 48.904 62.8271 49.1552C62.6609 49.404 62.4323 49.5958 62.1431 49.7305C61.8519 49.8652 61.5175 49.9314 61.1399 49.9314" fill="#7EBD0B"></path>
    <path d="M58.4323 25.1917C58.4323 25.1917 46.65 24.0958 46.65 29.1073C46.7233 31.9452 48.9521 33.4178 51.3922 33.4178C54.8054 33.4178 58.4581 27.4634 58.4323 25.1917ZM52.3998 15.2169C51.0233 15.2283 45.3641 15.2169 45.3641 15.2169L42.8268 11.2146L52.4904 11.2077C56.1561 11.1849 58.689 12.0433 60.2252 13.6438C61.7937 15.2785 62.9609 17.9109 62.935 21.5981C62.935 21.5981 62.8789 34.1073 62.9199 37.2968C61.5218 37.1643 58.702 36.9155 58.702 34.1095C58.702 33.863 58.7235 33.3196 58.702 32.8127C58.702 32.8127 56.6847 37.315 50.4472 37.315C46.3889 37.3059 42.4708 34.8561 42.3975 30.1643C42.4341 27.073 43.569 24.2671 46.281 22.9155C48.7428 21.6963 51.6403 21.4223 54.3243 21.4543H58.4366V20.8561C58.4495 16.4063 56.5164 15.1529 52.3998 15.2169Z" fill="#7EBD0B"></path>
    <path d="M12.7096 34.7283C14.1918 36.9772 17.9136 36.8059 20.0236 36.8059L10.8153 22.847L17.9244 11.6986C16.0193 11.5548 12.4658 11.468 11.0958 13.5274C8.65344 17.2009 6.06009 21.6575 5.08057 22.9521C6.09245 24.5297 10.1508 30.8493 12.7075 34.726" fill="#7EBD0B"></path>
    <path d="M0.0234375 4.31735L0.0342252 36.6142C1.44957 36.3311 4.94262 35.3356 4.94262 32.4269L4.94693 0C3.52943 0.285388 0.0234375 1.30137 0.0234375 4.31735Z" fill="#7EBD0B"></path>
    <path d="M34.2205 29.1735C34.2205 27.5388 32.9691 26.952 32.0349 26.6004C31.4825 26.3972 30.2225 26.0342 28.2549 25.5137C24.2677 24.4612 20.7769 22.6438 20.7769 18.0342C20.7769 13.1621 24.9668 11.2146 29.3164 11.2146H36.8052L39.3036 15.1895H29.3509C27.9463 15.1895 25.3034 15.6735 25.3034 17.6963C25.3034 19.8676 28.9539 20.5251 30.3498 20.8767C35.1698 22.0867 38.9757 23.5639 38.9757 29.1484C38.9757 32.1461 37.2992 34.7625 34.6843 35.9201C33.3186 36.5251 31.6163 36.8082 29.5774 36.8082H26.1038L23.3659 32.5936H29.6227C31.5947 32.5936 34.2205 31.7511 34.2205 29.1735Z" fill="#7EBD0B"></path>
    <path d="M2.28226 49.936C1.85723 49.936 1.48613 49.8515 1.17113 49.6803C0.853974 49.5113 0.6037 49.2762 0.42031 48.9771C0.236919 48.678 0.129043 48.331 0.0966797 47.936L0.795721 47.8858C0.832399 48.1757 0.912228 48.4223 1.03736 48.6255C1.1625 48.8287 1.32863 48.9817 1.53791 49.0867C1.74719 49.1917 1.99962 49.2419 2.29521 49.2419C2.55411 49.2419 2.77418 49.2054 2.95541 49.1346C3.13665 49.0639 3.27473 48.9588 3.37182 48.8218C3.46891 48.6849 3.51637 48.5182 3.51637 48.3196C3.51637 48.1392 3.47538 47.9794 3.39555 47.8378C3.31572 47.6986 3.16254 47.5684 2.93599 47.452C2.71161 47.3333 2.37719 47.2168 1.93706 47.1027C1.51202 46.9862 1.17329 46.8607 0.923015 46.7237C0.672741 46.5867 0.489351 46.42 0.379317 46.2214C0.269282 46.0228 0.213187 45.7808 0.213187 45.4885C0.213187 45.1597 0.286543 44.8698 0.435413 44.6209C0.582125 44.3721 0.793563 44.1757 1.06973 44.0365C1.34373 43.8972 1.67168 43.8264 2.04925 43.8264C2.45271 43.8264 2.80007 43.9063 3.09134 44.0684C3.3826 44.2305 3.61346 44.452 3.78391 44.7305C3.95435 45.0113 4.06223 45.3287 4.10322 45.6849L3.40418 45.7351C3.37397 45.4999 3.30278 45.2899 3.19058 45.105C3.07839 44.92 2.92736 44.7762 2.73534 44.6734C2.54332 44.5684 2.31031 44.5182 2.0363 44.5182C1.69326 44.5182 1.42141 44.605 1.2186 44.7785C1.01579 44.952 0.914385 45.178 0.914385 45.4566C0.914385 45.6369 0.955378 45.7876 1.03521 45.904C1.11504 46.0228 1.25959 46.1255 1.46671 46.2168C1.67384 46.3081 1.97158 46.404 2.36209 46.5091C2.8238 46.6301 3.19058 46.7739 3.46243 46.9406C3.73428 47.1072 3.92846 47.3013 4.04497 47.5205C4.16147 47.7397 4.21973 47.9885 4.21973 48.2693C4.21973 48.6095 4.13558 48.904 3.97161 49.1552C3.80548 49.404 3.57678 49.5958 3.28767 49.7305C2.99641 49.8652 2.66199 49.9314 2.28442 49.9314" fill="#7EBD0B"></path>
    <path d="M7.05067 43.9612H6.38184V49.8036H7.05067V43.9612Z" fill="#7EBD0B"></path>
    <path d="M9.60742 49.8036V43.9612H10.2763V49.4749L9.94184 49.1119H13.0379V49.8036H9.60742Z" fill="#7EBD0B"></path>
    <path d="M14.8564 49.8036V43.9612H15.7907L17.5555 49.0297L19.3139 43.9612H20.246V49.8036H19.5771V45.2762L18 49.8036H17.1046L15.5253 45.2762V49.8036H14.8564Z" fill="#7EBD0B"></path>
    <path d="M22.1685 49.8036L24.1599 43.9612H25.0617L27.0531 49.8036H26.3217L25.7694 48.1415H23.4522L22.8999 49.8036H22.1685ZM23.6766 47.4498H25.5428L24.6086 44.5776L23.6744 47.4498H23.6766Z" fill="#7EBD0B"></path>
    <path d="M28.9321 49.8036V43.9612H29.601V46.8653L32.0821 43.9612H32.93L30.7682 46.4954L33.0789 49.8036H32.2612L30.3173 47.0228L29.601 47.8539V49.8036H28.9321Z" fill="#7EBD0B"></path>
    <path d="M34.9604 49.8036V43.9612H38.4298V44.6507H35.6293V46.5365H38.3348V47.21H35.6293V49.1119H38.4902V49.8036H34.9604Z" fill="#7EBD0B"></path>
    <path d="M42.6737 49.936C42.2486 49.936 41.8775 49.8515 41.5625 49.6803C41.2454 49.5113 40.9951 49.2762 40.8117 48.9771C40.6283 48.678 40.5204 48.331 40.4902 47.936L41.1893 47.8858C41.226 48.1757 41.3058 48.4223 41.4309 48.6255C41.5561 48.8287 41.7222 48.9817 41.9336 49.0867C42.1429 49.1917 42.3953 49.2419 42.6909 49.2419C42.9498 49.2419 43.1699 49.2054 43.3511 49.1346C43.5324 49.0639 43.6704 48.9588 43.7675 48.8218C43.8646 48.6849 43.9121 48.5182 43.9121 48.3196C43.9121 48.1392 43.8711 47.9794 43.7913 47.8378C43.7114 47.6986 43.5582 47.5684 43.3317 47.452C43.1052 47.3333 42.7729 47.2168 42.3328 47.1027C41.9077 46.9862 41.569 46.8607 41.3187 46.7237C41.0663 46.5867 40.8851 46.42 40.775 46.2214C40.6628 46.025 40.6067 45.7808 40.6067 45.4885C40.6067 45.1597 40.6801 44.8698 40.829 44.6209C40.9757 44.3721 41.1871 44.1757 41.4633 44.0365C41.7373 43.8972 42.0652 43.8264 42.4428 43.8264C42.8463 43.8264 43.1936 43.9063 43.4849 44.0684C43.7762 44.2305 44.0049 44.452 44.1775 44.7305C44.3479 45.0113 44.4558 45.3287 44.4968 45.6849L43.7977 45.7351C43.7675 45.4999 43.6963 45.2899 43.5841 45.105C43.4719 44.92 43.3209 44.7762 43.1289 44.6734C42.9369 44.5707 42.7039 44.5182 42.4299 44.5182C42.0868 44.5182 41.815 44.605 41.6143 44.7785C41.4115 44.952 41.3101 45.178 41.3101 45.4566C41.3101 45.6369 41.3511 45.7876 41.4309 45.904C41.5107 46.0228 41.6553 46.1255 41.8624 46.2168C42.0695 46.3081 42.3673 46.404 42.7556 46.5091C43.2174 46.6301 43.5841 46.7739 43.856 46.9406C44.1278 47.1072 44.322 47.3013 44.4385 47.5205C44.555 47.7397 44.6133 47.9885 44.6133 48.2693C44.6133 48.6095 44.5291 48.904 44.3652 49.1552C44.199 49.404 43.9703 49.5958 43.6812 49.7305C43.39 49.8652 43.0555 49.9314 42.678 49.9314" fill="#7EBD0B"></path>
    <path d="M46.8032 49.8036V43.9612H47.4721V46.8653L49.9532 43.9612H50.8011L48.6393 46.4954L50.95 49.8036H50.1323L48.1884 47.0228L47.4721 47.8539V49.8036H46.8032Z" fill="#7EBD0B"></path>
    <path d="M54.7214 49.9362C54.2964 49.9362 53.9274 49.8471 53.6124 49.6736C53.2996 49.4978 53.0579 49.2467 52.8896 48.9202C52.7214 48.5937 52.6372 48.2079 52.6372 47.7627V43.9521H53.306V47.7627C53.306 48.2353 53.429 48.5983 53.675 48.8563C53.9209 49.1143 54.2705 49.2421 54.7214 49.2421C55.1723 49.2421 55.5132 49.1143 55.7592 48.8563C56.0051 48.5983 56.1281 48.233 56.1281 47.7627V43.9521H56.7969V47.7627C56.7969 48.2079 56.7128 48.5937 56.5445 48.9202C56.3762 49.2467 56.1367 49.4978 55.826 49.6736C55.5154 49.8494 55.1464 49.9362 54.7214 49.9362Z" fill="#7EBD0B"></path>
  </g>
  <defs>
    <clipPath id="clip0_3459_4289">
      <rect width="63" height="50" fill="white" transform="translate(0.0234375)"></rect>
    </clipPath>
  </defs>
</svg>
